Give Me Pink # 10 DVD
Cruel Media

Category 	All Girl, HD - Shot In High Def, Foreign, Gonzo, Toy Play, Masturbation
Director 	Clara G
Starring 	Suzie Carina, Tina, Bridget, Ally, Billy Rais


Prague Action!
Ultra Sharp Close-Ups! 6 Solo Scenes!
Smoking Hot Girls From The Czech Republic

Product Detail

Studio 	Cruel Media
CD Universe Part number 	8667973
Discs 	1
Release Date 	Jan 17, 2012

frond
 
http://bayimg.com/kaMLoaAdB

back
 
http://bayimg.com/LaMLfAAdB

screen
 
http://bayimg.com/LAMLMAAdB

General
Complete name                    : C:\Downloads\Give Me Pink # 10 DVD\dvd\Give Me Pink # 10 DVD.avi
Format                           : AVI
Format/Info                      : Audio Video Interleave
Format profile                   : OpenDML
File size                        : 1.82 GiB
Duration                         : 3h 14mn
Overall bit rate                 : 1 340 Kbps
Writing application              : MEncoder SVN-r30881(20100311-gcc4.3.3)
Writing library                  : MPlayer

Video
ID                               : 0
Format                           : MPEG-4 Visual
Format profile                   : Advanced Simple@L5
Format settings, BVOP            : 2
Format settings, QPel            : No
Format settings, GMC             : No warppoints
Format settings, Matrix          : Default (H.263)
Codec ID                         : XVID
Codec ID/Hint                    : XviD
Duration                         : 3h 14mn
Bit rate                         : 33.6 Kbps
Width                            : 720 pixels
Height                           : 480 pixels
Display aspect ratio             : 3:2
Frame rate                       : 25.000 fps
Standard                         : NTSC
Color space                      : YUV
Chroma subsampling               : 4:2:0
Bit depth                        : 8 bits
Scan type                        : Progressive
Compression mode                 : Lossy
Bits/(Pixel*Frame)               : 0.004
Stream size                      : 46.6 MiB (3%)
Writing library                  : XviD 1.2.1 (UTC 2008-12-04)

Audio
ID                               : 1
Format                           : MPEG Audio
Codec ID                         : 55
Codec ID/Hint                    : MP3
Duration                         : 3h 14mn
Bit rate                         : 128 Kbps
Channel(s)                       : 2 channels
Sampling rate                    : 44.1 KHz
Compression mode                 : Lossy
Stream size                      : 178 MiB (10%)
Alignment                        : Aligned on interleaves

